<?xml version="1.0" encoding="utf-8"?>
<!-- Generator: Adobe Illustrator 18.1.0, SVG Export Plug-In . SVG Version: 6.00 Build 0)  -->
<svg version="1.1" id="Layer_1" xmlns="http://www.w3.org/2000/svg" xmlns:xlink="http://www.w3.org/1999/xlink" x="0px" y="0px"
	 viewBox="0 0 30 30" enable-background="new 0 0 30 30" xml:space="preserve">
<g>
	<path fill="#999999" d="M6,27.3v-4.7H4.5c-0.8,0-1.5-0.7-1.5-1.5v-13c0-0.8,0.7-1.5,1.5-1.5h21c0.8,0,1.5,0.7,1.5,1.5v13
		c0,0.8-0.7,1.5-1.5,1.5H10.8L6,27.3z M4.5,7.6C4.3,7.6,4,7.8,4,8.1v13c0,0.3,0.2,0.5,0.5,0.5H7v3.3l3.3-3.3h15.2
		c0.3,0,0.5-0.2,0.5-0.5v-13c0-0.3-0.2-0.5-0.5-0.5H4.5z"/>
	<g>
		<path fill="#999999" d="M11.4,15.3c-0.4,0-0.7-0.3-0.7-0.7c0-0.4,0.3-0.7,0.7-0.7c0.4,0,0.7,0.3,0.7,0.7
			C12.1,15,11.8,15.3,11.4,15.3z"/>
		<path fill="#999999" d="M18.7,15.3c-0.4,0-0.7-0.3-0.7-0.7c0-0.4,0.3-0.7,0.7-0.7c0.4,0,0.7,0.3,0.7,0.7
			C19.4,15,19.1,15.3,18.7,15.3z"/>
		<path fill="#999999" d="M15.1,15.3c-0.4,0-0.7-0.3-0.7-0.7c0-0.4,0.3-0.7,0.7-0.7c0.4,0,0.7,0.3,0.7,0.7
			C15.8,15,15.4,15.3,15.1,15.3z"/>
	</g>
</g>
</svg>
