<?xml version="1.0" encoding="utf-8"?>
<!-- Generator: Adobe Illustrator 18.1.0, SVG Export Plug-In . SVG Version: 6.00 Build 0)  -->
<svg version="1.1" id="Layer_1" xmlns="http://www.w3.org/2000/svg" xmlns:xlink="http://www.w3.org/1999/xlink" x="0px" y="0px"
	 viewBox="0 0 30 30" enable-background="new 0 0 30 30" xml:space="preserve">
<path fill="#999999" d="M25.6,10.8H15.2L16.8,9c0.6-0.7,0.5-1.7-0.1-2.3c-0.6-0.6-1.6-0.6-2.1-0.2c-0.3,0.2-8.9,5.6-8.9,5.6v9.6
	l6,1.7c0.9,0.3,1.9,0.4,2.9,0.4h3.1c1.1,0,2-0.9,2-2v-1.1c0.6-0.2,1-0.8,1-1.4v-1.6c0.6-0.2,1-0.8,1-1.4v-1.5h4c1.1,0,2-0.9,2-2
	S26.7,10.8,25.6,10.8z M25.6,13.8h-7.5v1h2.5v1.5c0,0.3-0.2,0.5-0.5,0.5h-2v1h1.5v1.5c0,0.3-0.2,0.5-0.5,0.5h-2v1h1.5v1
	c0,0.6-0.4,1-1,1h-3.1c-0.9,0-1.8-0.1-2.6-0.4l-5.3-1.5v-8.4C8.8,11,15,7.4,15.1,7.3c0.3-0.2,0.7-0.2,0.9,0.1c0.3,0.3,0.3,0.7,0,1
	l-3,3.5h12.6c0.6,0,1,0.4,1,1S26.2,13.8,25.6,13.8z"/>
</svg>
