<?xml version="1.0" encoding="utf-8"?>
<!-- Generator: Adobe Illustrator 18.1.0, SVG Export Plug-In . SVG Version: 6.00 Build 0)  -->
<svg version="1.1" id="Layer_1" xmlns="http://www.w3.org/2000/svg" xmlns:xlink="http://www.w3.org/1999/xlink" x="0px" y="0px"
	 viewBox="0 0 30 30" enable-background="new 0 0 30 30" xml:space="preserve">
<g>
	<path fill="#999999" d="M15.1,23.6l0.4-0.4c0.3-0.3,6.6-6.8,6.6-12.2c0-4.4-2.6-7-7-7c-4.4,0-7,2.6-7,7c0,5.4,6.4,11.9,6.6,12.2
		L15.1,23.6z M15.1,5c3.9,0,6,2.1,6,6c0,4.3-4.7,9.6-6,11.1c-1.3-1.5-6-6.8-6-11.1C9.1,7.2,11.3,5,15.1,5z"/>
	<path fill="#999999" d="M18.1,11c0-1.7-1.3-3-3-3s-3,1.3-3,3s1.3,3,3,3S18.1,12.7,18.1,11z M13.1,11c0-1.1,0.9-2,2-2s2,0.9,2,2
		s-0.9,2-2,2S13.1,12.1,13.1,11z"/>
	<path fill="#999999" d="M15.1,26.5c-4.2,0-12-0.6-12-3c0-1.8,4.3-2.5,6.9-2.8l0.1,1c-4.5,0.5-6,1.4-6,1.8c0,0.7,3.9,2,11,2
		s11-1.3,11-2c0-0.4-1.5-1.3-6.1-1.8l0.1-1c2.6,0.3,6.9,1,6.9,2.8C27.1,25.8,19.3,26.5,15.1,26.5z"/>
</g>
</svg>
