<?xml version="1.0" encoding="utf-8"?>
<!-- Generator: Adobe Illustrator 18.1.0, SVG Export Plug-In . SVG Version: 6.00 Build 0)  -->
<svg version="1.1" id="Layer_1" xmlns="http://www.w3.org/2000/svg" xmlns:xlink="http://www.w3.org/1999/xlink" x="0px" y="0px"
	 viewBox="0 0 30 30" enable-background="new 0 0 30 30" xml:space="preserve">
<g>
	<path fill="#999999" d="M17.9,27.8L3.2,13.1V5.4h7.7l14.7,14.7l-5.5,2.2L17.9,27.8z M4.2,12.7L17.5,26l1.8-4.5l4.5-1.8L10.5,6.4
		H4.2V12.7z"/>
	<polygon fill="#999999" points="25.3,17.9 24.5,17.1 25.7,16.7 13.5,4.4 6.7,4.4 6.7,3.4 13.9,3.4 27.6,17.1 	"/>
	<path fill="#999999" d="M8.2,12.4c-1.1,0-2-0.9-2-2s0.9-2,2-2s2,0.9,2,2S9.3,12.4,8.2,12.4z M8.2,9.4c-0.6,0-1,0.4-1,1s0.4,1,1,1
		s1-0.4,1-1S8.7,9.4,8.2,9.4z"/>
</g>
</svg>
