<?xml version="1.0" encoding="utf-8"?>
<!-- Generator: Adobe Illustrator 18.1.0, SVG Export Plug-In . SVG Version: 6.00 Build 0)  -->
<svg version="1.1" id="Layer_1" xmlns="http://www.w3.org/2000/svg" xmlns:xlink="http://www.w3.org/1999/xlink" x="0px" y="0px"
	 viewBox="0 0 30 30" enable-background="new 0 0 30 30" xml:space="preserve">
<g>
	<polygon fill="#999999" points="23.2,26 5.2,26 5.2,6 18.7,6 18.7,5 4.2,5 4.2,27 24.2,27 24.2,14.5 23.2,14.5 	"/>
	<path fill="#999999" d="M11.1,20.1l6.1-2.6L28.4,6.4l-3.5-3.5l-11,11L11.1,20.1z M24.9,4.2L27,6.4l-1.1,1.1l-2.1-2.1L24.9,4.2z
		 M23,6.1l2.1,2.1L17,16.3l-2.1-2.1L23,6.1z M16.1,16.9L13,18.2l1.3-3.1L16.1,16.9z"/>
</g>
</svg>
